<svg width="50" height="50" viewBox="0 0 50 50" fill="none" xmlns="http://www.w3.org/2000/svg">
<path d="M50 25C50 38.8071 38.8071 50 25 50C11.1929 50 0 38.8071 0 25C0 11.1929 11.1929 0 25 0C38.8071 0 50 11.1929 50 25Z" fill="#7289DA"/>
<path d="M33.6143 13.75H16.3857C14.9329 13.75 13.75 14.9 13.75 16.325V33.225C13.75 34.65 14.9329 35.8 16.3857 35.8H30.9657L30.2843 33.4875L31.93 34.975L33.4857 36.375L36.25 38.75V16.325C36.25 14.9 35.0671 13.75 33.6143 13.75ZM28.6514 30.075C28.6514 30.075 28.1886 29.5375 27.8029 29.0625C29.4871 28.6 30.13 27.575 30.13 27.575C29.6029 27.9125 29.1014 28.15 28.6514 28.3125C28.0086 28.575 27.3914 28.75 26.7871 28.85C25.5529 29.075 24.4214 29.0125 23.4571 28.8375C22.7243 28.7 22.0943 28.5 21.5671 28.3C21.2714 28.1875 20.95 28.05 20.6286 27.875C20.59 27.85 20.5514 27.8375 20.5129 27.8125C20.4871 27.8 20.4743 27.7875 20.4614 27.775C20.23 27.65 20.1014 27.5625 20.1014 27.5625C20.1014 27.5625 20.7186 28.5625 22.3514 29.0375C21.9657 29.5125 21.49 30.075 21.49 30.075C18.6486 29.9875 17.5686 28.175 17.5686 28.175C17.5686 24.15 19.42 20.8875 19.42 20.8875C21.2714 19.5375 23.0329 19.575 23.0329 19.575L23.1614 19.725C20.8471 20.375 19.78 21.3625 19.78 21.3625C19.78 21.3625 20.0629 21.2125 20.5386 21C21.9143 20.4125 23.0071 20.25 23.4571 20.2125C23.5343 20.2 23.5986 20.1875 23.6757 20.1875C24.46 20.0875 25.3471 20.0625 26.2729 20.1625C27.4943 20.3 28.8057 20.65 30.1429 21.3625C30.1429 21.3625 29.1271 20.425 26.9414 19.775L27.1214 19.575C27.1214 19.575 28.8829 19.5375 30.7343 20.8875C30.7343 20.8875 32.5857 24.15 32.5857 28.175C32.5857 28.175 31.4929 29.9875 28.6514 30.075ZM22.6729 24.2375C21.94 24.2375 21.3614 24.8625 21.3614 25.625C21.3614 26.3875 21.9529 27.0125 22.6729 27.0125C23.4057 27.0125 23.9843 26.3875 23.9843 25.625C23.9971 24.8625 23.4057 24.2375 22.6729 24.2375ZM27.3657 24.2375C26.6329 24.2375 26.0543 24.8625 26.0543 25.625C26.0543 26.3875 26.6457 27.0125 27.3657 27.0125C28.0986 27.0125 28.6771 26.3875 28.6771 25.625C28.6771 24.8625 28.0986 24.2375 27.3657 24.2375Z" fill="white"/>
</svg>
