<svg width="50" height="50" viewBox="0 0 50 50" fill="none" xmlns="http://www.w3.org/2000/svg">
<circle cx="25" cy="25" r="25" fill="#4E6297"/>
<path d="M36.25 17.2733C36.25 15.4016 34.5984 13.75 32.7267 13.75H18.5233C16.6516 13.75 15 15.4016 15 17.2733V31.4767C15 33.3484 16.6516 35 18.5233 35H25.68V26.9624H23.0376V23.4391H25.68V22.0078C25.68 19.5855 27.4417 17.4935 29.6438 17.4935H32.5065V21.0168H29.6438C29.3135 21.0168 28.9832 21.3471 28.9832 22.0078V23.4391H32.5065V26.9624H28.9832V35H32.7267C34.5984 35 36.25 33.3484 36.25 31.4767V17.2733Z" fill="white"/>
</svg>
