<svg width="50" height="50" viewBox="0 0 50 50" fill="none" xmlns="http://www.w3.org/2000/svg">
<circle cx="25" cy="25" r="25" fill="url(#paint0_linear)"/>
<path d="M33.226 15H18.024C16.3077 15 15 16.3077 15 18.024V33.226C15 34.9423 16.3077 36.25 18.024 36.25H33.226C34.9423 36.25 36.25 34.9423 36.25 33.226V18.024C36.25 16.3077 34.9423 15 33.226 15ZM25.625 32C29.1394 32 32 29.2212 32 25.8702C32 25.2981 31.9183 24.6442 31.7548 24.1538H33.5529V32.8173C33.5529 33.226 33.226 33.6346 32.7356 33.6346H18.5144C18.1058 33.6346 17.6971 33.3077 17.6971 32.8173V24.0721H19.5769C19.4135 24.6442 19.3317 25.2163 19.3317 25.7885C19.25 29.2212 22.1106 32 25.625 32ZM25.625 29.5481C23.3365 29.5481 21.5385 27.75 21.5385 25.5433C21.5385 23.3365 23.3365 21.5385 25.625 21.5385C27.9135 21.5385 29.7115 23.3365 29.7115 25.5433C29.7115 27.8317 27.9135 29.5481 25.625 29.5481ZM33.4712 20.8029C33.4712 21.2933 33.0625 21.7019 32.5721 21.7019H30.2837C29.7933 21.7019 29.3846 21.2933 29.3846 20.8029V18.5962C29.3846 18.1058 29.7933 17.6971 30.2837 17.6971H32.5721C33.0625 17.6971 33.4712 18.1058 33.4712 18.5962V20.8029Z" fill="white"/>
<defs>
<linearGradient id="paint0_linear" x1="10.625" y1="44.375" x2="43.75" y2="10" gradientUnits="userSpaceOnUse">
<stop stop-color="#EEA054"/>
<stop offset="0.502762" stop-color="#D64763"/>
<stop offset="1" stop-color="#B62A99"/>
</linearGradient>
</defs>
</svg>
