<svg width="50" height="50" viewBox="0 0 50 50" fill="none" xmlns="http://www.w3.org/2000/svg">
<circle cx="25" cy="25" r="25" fill="#55ACE3"/>
<path d="M38.25 18.625C37.375 19 36.375 19.25 35.375 19.375C36.375 18.75 37.25 17.75 37.625 16.625C36.625 17.25 35.625 17.625 34.375 17.875C33.5 16.875 32.125 16.25 30.75 16.25C28 16.25 25.75 18.5 25.75 21.25C25.75 21.625 25.75 22 25.875 22.375C21.75 22.125 18 20.125 15.5 17.125C15.125 17.875 14.875 18.75 14.875 19.625C14.875 21.375 15.75 22.875 17.125 23.75C16.25 23.75 15.5 23.5 14.875 23.125C14.875 25.5 16.625 27.625 18.875 28C18.5 28.125 18 28.125 17.5 28.125C17.125 28.125 16.875 28.125 16.5 28C17.125 30 19 31.5 21.25 31.5C19.5 32.875 17.375 33.625 15 33.625C14.625 33.625 14.25 33.625 13.75 33.5C16 34.875 18.625 35.75 21.5 35.75C30.75 35.75 35.75 28.125 35.75 21.5V20.875C36.75 20.5 37.625 19.625 38.25 18.625Z" fill="white"/>
</svg>
