<svg width="50" height="50" viewBox="0 0 50 50" fill="none" xmlns="http://www.w3.org/2000/svg">
<circle cx="25" cy="25" r="25" fill="#F40000"/>
<path d="M35.8914 23.6414C35.8914 23.1566 35.8106 22.5909 35.8106 21.9444C35.7298 21.298 35.649 20.6515 35.5682 20.0859C35.4066 19.4394 35.1641 18.9545 34.6793 18.5505C34.2752 18.1465 33.7096 17.904 33.1439 17.8232C31.2854 17.5808 28.5379 17.5 24.8207 17.5C21.1035 17.5 18.2752 17.5808 16.4975 17.8232C15.9318 17.904 15.3662 18.1465 14.9621 18.5505C14.5581 18.9545 14.2348 19.4394 14.0732 20.0859C13.9116 20.6515 13.8308 21.2172 13.8308 21.9444C13.75 22.5909 13.75 23.1566 13.75 23.6414C13.75 24.1263 13.75 24.6919 13.75 25.5C13.75 26.3081 13.75 26.9545 13.75 27.3586C13.75 27.8434 13.8308 28.4091 13.8308 29.0556C13.9116 29.702 13.9924 30.3485 14.0732 30.9141C14.2348 31.5606 14.4773 32.0455 14.9621 32.4495C15.3662 32.8535 15.9318 33.096 16.4975 33.1768C18.3561 33.4192 21.1035 33.5 24.8207 33.5C28.5379 33.5 31.3662 33.4192 33.1439 33.1768C33.7096 33.096 34.2752 32.8535 34.6793 32.4495C35.0833 32.0455 35.4066 31.5606 35.5682 30.9141C35.7298 30.3485 35.8106 29.7828 35.8106 29.0556C35.8914 28.4091 35.8914 27.8434 35.8914 27.3586C35.8914 26.8737 35.8914 26.3081 35.8914 25.5C35.8914 24.6919 35.8914 24.0454 35.8914 23.6414ZM29.1035 26.1465L22.7197 30.1061C22.6389 30.1869 22.4773 30.2677 22.3157 30.2677C22.154 30.2677 22.0732 30.2677 21.9116 30.1869C21.6692 30.0253 21.5076 29.7828 21.5076 29.4596V21.4596C21.5076 21.1364 21.6692 20.8939 21.9116 20.7323C22.154 20.5707 22.4773 20.5707 22.7197 20.7323L29.1035 24.6919C29.346 24.8535 29.5076 25.096 29.5076 25.3384C29.5076 25.5808 29.346 25.9848 29.1035 26.1465Z" fill="white"/>
</svg>
