<svg width="82" height="67" viewBox="0 0 82 67" fill="none" xmlns="http://www.w3.org/2000/svg">
<mask id="mask0_44_1209" style="mask-type:alpha" maskUnits="userSpaceOnUse" x="0" y="29" width="82" height="38">
<rect x="80.7012" y="66.042" width="80.7059" height="36.1785" transform="rotate(-179.386 80.7012 66.042)" fill="url(#paint0_linear_44_1209)"/>
</mask>
<g mask="url(#mask0_44_1209)">
<circle cx="40.0429" cy="29.4254" r="28.5253" transform="rotate(-179.386 40.0429 29.4254)" fill="#F0B921"/>
</g>
<path d="M23.792 15.504C23.792 14.496 23.88 13.472 24.056 12.432C24.248 11.392 24.576 10.448 25.04 9.6C25.52 8.752 26.168 8.064 26.984 7.536C27.8 6.992 28.84 6.72 30.104 6.72C31.368 6.72 32.408 6.992 33.224 7.536C34.04 8.064 34.68 8.752 35.144 9.6C35.624 10.448 35.952 11.392 36.128 12.432C36.32 13.472 36.416 14.496 36.416 15.504C36.416 16.512 36.32 17.536 36.128 18.576C35.952 19.616 35.624 20.56 35.144 21.408C34.68 22.256 34.04 22.952 33.224 23.496C32.408 24.024 31.368 24.288 30.104 24.288C28.84 24.288 27.8 24.024 26.984 23.496C26.168 22.952 25.52 22.256 25.04 21.408C24.576 20.56 24.248 19.616 24.056 18.576C23.88 17.536 23.792 16.512 23.792 15.504ZM27.392 15.504C27.392 15.952 27.408 16.488 27.44 17.112C27.488 17.736 27.6 18.336 27.776 18.912C27.952 19.488 28.216 19.976 28.568 20.376C28.936 20.776 29.448 20.976 30.104 20.976C30.744 20.976 31.248 20.776 31.616 20.376C31.984 19.976 32.256 19.488 32.432 18.912C32.608 18.336 32.712 17.736 32.744 17.112C32.792 16.488 32.816 15.952 32.816 15.504C32.816 15.056 32.792 14.52 32.744 13.896C32.712 13.272 32.608 12.672 32.432 12.096C32.256 11.52 31.984 11.032 31.616 10.632C31.248 10.232 30.744 10.032 30.104 10.032C29.448 10.032 28.936 10.232 28.568 10.632C28.216 11.032 27.952 11.52 27.776 12.096C27.6 12.672 27.488 13.272 27.44 13.896C27.408 14.52 27.392 15.056 27.392 15.504ZM44.1151 11.04L40.7071 14.04L38.6671 11.688L44.2111 7.008H47.5711V24H44.1151V11.04Z" fill="#514F4F"/>
<defs>
<linearGradient id="paint0_linear_44_1209" x1="103.094" y1="84.1312" x2="161.407" y2="84.1312" gradientUnits="userSpaceOnUse">
<stop stop-color="#E57506"/>
<stop offset="1" stop-color="#F0B921"/>
</linearGradient>
</defs>
</svg>
