<svg width="27" height="27" viewBox="0 0 27 27" fill="none" xmlns="http://www.w3.org/2000/svg">
<circle cx="13.5" cy="13.5" r="13.5" fill="white"/>
<path d="M12.2334 17.7189C12.1224 17.7195 12.0123 17.6983 11.9095 17.6563C11.8067 17.6143 11.7132 17.5524 11.6343 17.4742C11.5553 17.3958 11.4925 17.3025 11.4497 17.1996C11.4068 17.0968 11.3848 16.9865 11.3848 16.8751C11.3848 16.7638 11.4068 16.6535 11.4497 16.5507C11.4925 16.4478 11.5553 16.3545 11.6343 16.2761L14.4272 13.5001L11.744 10.7073C11.5869 10.5492 11.4987 10.3354 11.4987 10.1125C11.4987 9.88958 11.5869 9.67573 11.744 9.51765C11.8225 9.43856 11.9158 9.37579 12.0186 9.33296C12.1214 9.29012 12.2317 9.26807 12.3431 9.26807C12.4545 9.26807 12.5648 9.29012 12.6676 9.33296C12.7704 9.37579 12.8637 9.43856 12.9422 9.51765L16.199 12.8926C16.3536 13.0504 16.4402 13.2624 16.4402 13.4833C16.4402 13.7041 16.3536 13.9162 16.199 14.0739L12.824 17.4489C12.7483 17.5307 12.6571 17.5967 12.5557 17.643C12.4544 17.6893 12.3448 17.7151 12.2334 17.7189V17.7189Z" fill="#C85400"/>
</svg>
