<svg width="10" height="9" viewBox="0 0 10 9" fill="none" xmlns="http://www.w3.org/2000/svg">
<path d="M9.52503 1.31284C9.41638 1.16029 9.36206 1.08401 9.31292 1.03243C8.9192 0.619132 8.25998 0.618697 7.86572 1.03147C7.81651 1.08299 7.76209 1.1592 7.65324 1.3116L6.31829 3.18072C5.86434 3.81633 5.63736 4.13413 5.35342 4.2414C5.12566 4.32745 4.87434 4.32745 4.64658 4.2414C4.36264 4.13413 4.13566 3.81633 3.68171 3.18072L2.34676 1.3116C2.23791 1.1592 2.18349 1.08299 2.13428 1.03147C1.74002 0.618697 1.0808 0.619132 0.687085 1.03243C0.637941 1.08401 0.583616 1.16029 0.474967 1.31284V1.31284C0.415864 1.39582 0.386313 1.43731 0.363049 1.47736C0.182591 1.78796 0.182591 2.17148 0.363049 2.48208C0.386313 2.52212 0.415864 2.56362 0.474967 2.6466L3.68047 7.1473C4.1347 7.78507 4.36181 8.10395 4.64611 8.21152C4.87415 8.2978 5.12585 8.2978 5.35389 8.21152C5.63819 8.10395 5.8653 7.78507 6.31953 7.1473L9.52503 2.6466C9.58414 2.56362 9.61369 2.52212 9.63695 2.48208C9.81741 2.17148 9.81741 1.78796 9.63695 1.47736C9.61369 1.43731 9.58414 1.39582 9.52503 1.31284V1.31284Z" fill="url(#paint0_linear_53_970)"/>
<defs>
<linearGradient id="paint0_linear_53_970" x1="5" y1="6.50289" x2="5" y2="2.56528e-07" gradientUnits="userSpaceOnUse">
<stop stop-color="#E57506"/>
<stop offset="1" stop-color="#F0B921"/>
</linearGradient>
</defs>
</svg>
