<svg width="50" height="50" viewBox="0 0 50 50" fill="none" xmlns="http://www.w3.org/2000/svg">
<path fill-rule="evenodd" clip-rule="evenodd" d="M24.9344 0.000283187C38.7724 0.000283187 49.9342 11.162 49.9342 25.0653C49.9342 38.7727 38.6419 50.065 24.7386 49.9997C11.2923 49.8692 0 38.7727 0 25C0 11.162 11.0965 -0.0649902 24.9344 0.000283187ZM5.93988 38.0547C5.93988 38.3158 6.07043 38.4463 6.20097 38.6421C7.18007 40.0129 8.28972 41.3184 9.59519 42.428C10.1827 42.9502 10.7701 43.4724 11.4228 43.9293C13.2505 45.1042 15.1434 46.2139 17.2322 46.9319C18.9293 47.5193 20.6917 47.9762 22.4541 48.1721C23.8248 48.3026 25.2608 48.3679 26.6316 48.1721C27.4148 48.0415 28.2634 48.0415 29.0467 47.7151C29.1772 47.7804 29.2425 47.6499 29.3078 47.6499C30.9396 47.3888 32.5062 46.8666 34.0727 46.2139C39.1641 43.9946 43.0152 40.4045 45.4956 35.4438C47.7149 31.0704 48.4329 26.436 47.7149 21.6058C47.0621 16.9714 45.1039 12.9244 41.9708 9.5302C37.7933 4.76524 32.4409 2.28485 26.1094 1.89321C23.3026 1.69739 20.4959 2.08903 17.8196 3.00286C13.4463 4.43887 9.85629 6.91926 6.91898 10.5093C3.59004 14.6215 1.9582 19.3212 1.76238 24.5431C1.69711 25.8486 1.82766 27.0888 2.02348 28.3942C2.41512 31.3315 3.39422 34.1383 4.8955 36.6839C5.28715 37.0756 5.54824 37.5978 5.93988 38.0547Z" fill="#AAADC0"/>
<path fill-rule="evenodd" clip-rule="evenodd" d="M29.0462 47.6502C28.263 48.0418 27.4144 48.0418 26.6311 48.1071C25.2604 48.3029 23.8244 48.2376 22.4536 48.1071C20.6912 47.9113 18.9289 47.4543 17.2318 46.8669C15.143 46.1489 13.2501 45.0392 11.4224 43.8643C10.7697 43.4074 10.1822 42.8852 9.59476 42.363C8.2893 41.2534 7.17965 39.9479 6.20055 38.5771C6.07 38.3813 5.93945 38.1855 5.93945 37.9897C7.50602 34.4649 8.09348 30.7443 8.41984 26.9585C8.55039 25.1961 8.61566 23.4337 8.94203 21.6713C9.2684 19.6479 10.0517 17.8202 11.4877 16.2536C12.7932 14.8829 14.425 13.9691 16.1874 13.3163C17.6234 12.7289 19.1247 12.2067 20.7565 12.1414C22.2578 12.0761 23.6938 12.272 25.1298 12.5983C27.2839 13.1205 29.4379 13.7732 31.4614 14.7523C33.0932 15.4051 34.7903 16.0578 36.4874 16.58C38.2498 17.1022 40.0122 17.6897 41.5135 18.7993C43.4064 20.2353 43.9286 22.063 43.08 24.2823C42.5578 25.653 41.5787 26.6974 40.5996 27.7418C38.8373 29.5694 36.9443 31.2665 35.2472 33.1595C33.289 35.444 31.5266 37.7939 30.2864 40.5354C29.2421 42.8199 28.6546 45.1698 29.0462 47.6502ZM41.644 26.1752C41.5787 26.1752 41.5135 26.1752 41.4482 26.2405C41.3829 26.2405 41.3176 26.3057 41.3176 26.371C41.3176 26.371 41.3176 26.371 41.3176 26.4363C41.3829 26.4363 41.4482 26.371 41.4482 26.3057L41.644 26.1752C41.7746 26.1752 41.7093 26.1752 41.644 26.1752C41.644 26.1752 41.7093 26.1099 41.644 26.1752ZM21.6703 14.8176C19.19 14.8176 17.1665 16.8411 17.1665 19.2562C17.1665 21.7366 19.19 23.6948 21.6051 23.7601C24.0855 23.7601 26.0437 21.7366 26.1089 19.2562C26.1089 16.7758 24.1507 14.8176 21.6703 14.8176ZM25.3257 28.525C25.7173 29.1125 26.4353 29.6347 27.2839 29.8958C28.981 30.4832 30.6781 30.4832 32.3752 30.1569C35.3778 29.5694 38.1845 28.525 40.7302 26.8279C40.8607 26.6974 41.1218 26.6974 41.1871 26.4363C41.0565 26.371 40.9913 26.4363 40.926 26.5016C40.0775 27.0238 39.1636 27.4154 38.2498 27.807C35.8999 28.7861 33.4196 29.4389 30.8086 29.5694C28.9157 29.7 27.0228 29.5694 25.3257 28.525ZM37.6623 24.6739C38.1845 24.6739 38.6414 24.217 38.6414 23.6295C38.6414 23.1074 38.1845 22.6504 37.5971 22.7157C37.0749 22.7157 36.6832 23.1726 36.6832 23.6948C36.6832 24.2823 37.0749 24.6739 37.6623 24.6739Z" fill="#A9ACBF"/>
<path fill-rule="evenodd" clip-rule="evenodd" d="M25.0647 12.5983C23.6287 12.3372 22.1927 12.0761 20.6914 12.1414C19.0596 12.2066 17.6235 12.7288 16.1222 13.3163C14.3599 13.969 12.728 14.8828 11.4226 16.2536C9.98655 17.7549 9.20327 19.5825 8.8769 21.6713C8.61581 23.4337 8.55053 25.196 8.35471 26.9584C8.02835 30.7443 7.44088 34.5301 5.87432 37.9896C5.41741 37.598 5.15631 37.0105 4.89522 36.5536C3.39393 34.008 2.41483 31.2012 2.02319 28.2639C1.82737 26.9584 1.69682 25.7182 1.7621 24.4128C1.95792 19.1909 3.58975 14.4912 6.9187 10.379C9.79073 6.78894 13.446 4.30855 17.8194 2.87253C20.4956 2.02398 23.3023 1.63234 26.1091 1.76289C32.3753 2.15453 37.7278 4.70019 41.9705 9.3346C45.1037 12.7941 46.9966 16.841 47.7146 21.4102C48.4326 26.2404 47.7146 30.8748 45.4953 35.2481C43.0149 40.2089 39.1638 43.799 34.0724 46.0183C32.5712 46.671 31.0046 47.1932 29.3075 47.4543C29.1769 47.4543 29.1117 47.6501 29.0464 47.5195C28.6547 45.0392 29.2422 42.6893 30.2213 40.4047C31.4615 37.6633 33.2239 35.3134 35.1821 33.0288C36.8139 31.1359 38.7069 29.3735 40.5345 27.6112C41.5789 26.5668 42.4927 25.5224 43.0149 24.1517C43.9287 21.9324 43.4065 20.1047 41.4483 18.6687C39.947 17.559 38.1847 16.9716 36.4223 16.4494C34.7252 15.9272 33.0281 15.2745 31.3962 14.6217C31.0699 13.5121 30.2866 12.7941 29.2422 12.4025C27.8715 12.0761 26.5007 12.2066 25.0647 12.5983ZM46.4091 26.5015H46.5397C46.8008 25.5877 46.8008 24.6086 46.8008 23.6295C46.8008 22.5198 46.6702 21.4102 46.4744 20.3005C45.7564 16.7105 44.1245 13.5774 41.5789 10.9012C40.0123 9.26933 38.2499 7.89859 36.4876 6.46257C34.921 5.1571 33.2239 4.178 31.2657 3.65581C29.3728 3.1989 27.5451 2.93781 25.5869 3.26417C25.4564 3.26417 25.3258 3.26418 25.3258 3.39472C25.3258 3.52527 25.4564 3.52527 25.5869 3.52527C28.4589 4.04746 31.2004 4.96129 33.8766 6.00566C36.4876 7.05003 38.7069 8.55132 40.3387 10.9012C41.4483 12.533 42.4927 14.2301 43.3413 16.0578C44.4509 18.5382 45.2995 21.0838 45.8217 23.6948C46.0828 24.7391 46.2786 25.5877 46.4091 26.5015Z" fill="#DADEEF"/>
<path fill-rule="evenodd" clip-rule="evenodd" d="M21.6709 14.8174C24.1512 14.8174 26.1094 16.8409 26.1094 19.256C26.1094 21.7364 24.086 23.6946 21.6056 23.7598C19.1252 23.7598 17.167 21.7364 17.167 19.256C17.167 16.7756 19.1905 14.8174 21.6709 14.8174ZM24.804 19.3212C24.804 17.5589 23.4332 16.1881 21.6709 16.1881C19.9085 16.1881 18.5377 17.5589 18.5377 19.3212C18.5377 21.0184 19.9085 22.4544 21.6056 22.4544H21.6709C23.368 22.4544 24.7387 21.0836 24.804 19.3212Z" fill="#FCFDFB"/>
<path fill-rule="evenodd" clip-rule="evenodd" d="M25.3265 28.5246C27.0236 29.5689 28.9166 29.6995 30.8095 29.6342C33.4204 29.5037 35.9008 28.9162 38.2507 27.8718C39.1645 27.4802 40.0783 27.0885 40.9269 26.5663C40.9921 26.5011 41.0574 26.4358 41.188 26.5011C41.1227 26.6969 40.9269 26.7622 40.731 26.8927C38.1854 28.5898 35.3786 29.6342 32.3761 30.2217C30.6789 30.548 28.9166 30.548 27.2847 29.9606C26.4362 29.6342 25.6529 29.112 25.3265 28.5246ZM25.0654 12.5978C26.4362 12.2062 27.8722 12.0756 29.2429 12.5978C30.2873 12.9895 31.0706 13.7075 31.3969 14.8171C29.4387 13.7728 27.2847 13.12 25.0654 12.5978Z" fill="#7E8295"/>
<path fill-rule="evenodd" clip-rule="evenodd" d="M37.6627 24.6735C37.1405 24.6735 36.6836 24.2166 36.6836 23.6944C36.6836 23.1722 37.0752 22.7153 37.5974 22.7153C38.1196 22.7153 38.5765 23.107 38.6418 23.6292C38.5765 24.2166 38.1849 24.6735 37.6627 24.6735Z" fill="#FCFDFB"/>
<path fill-rule="evenodd" clip-rule="evenodd" d="M41.4489 26.3054C41.4489 26.3706 41.3836 26.4359 41.3184 26.4359C41.3184 26.3054 41.3836 26.2401 41.4489 26.3054ZM41.6447 26.1748L41.4489 26.3054L41.3836 26.2401C41.5142 26.1748 41.5795 26.1748 41.6447 26.1748Z" fill="#A9ACBF"/>
<path fill-rule="evenodd" clip-rule="evenodd" d="M46.4096 26.5012C46.2138 25.5874 46.018 24.7388 45.8875 23.825C45.3653 21.1488 44.4514 18.6031 43.4071 16.188C42.6238 14.3604 41.5794 12.6632 40.4045 11.0314C38.7727 8.68157 36.6186 7.18028 33.9424 6.1359C31.2009 5.09153 28.5247 4.11242 25.6527 3.65551C25.5221 3.65551 25.3916 3.65551 25.3916 3.52497C25.3916 3.39442 25.5221 3.39442 25.6527 3.39442C27.5456 3.06805 29.4386 3.26387 31.3315 3.78606C33.2897 4.30825 34.9868 5.35262 36.5534 6.59281C38.3157 8.02883 40.0781 9.39957 41.6447 11.0314C44.1903 13.7076 45.8222 16.8407 46.5402 20.4308C46.736 21.5404 46.8666 22.6501 46.8666 23.7597C46.8666 24.6736 46.8666 25.6527 46.6055 26.6318L46.4096 26.5012Z" fill="#FFFEFC"/>
<path fill-rule="evenodd" clip-rule="evenodd" d="M24.8034 19.3214C24.8034 21.0185 23.4326 22.4546 21.7355 22.4546H21.6702C19.9731 22.4546 18.5371 21.0838 18.5371 19.3214V19.2562C18.5371 17.4938 19.9731 16.123 21.6702 16.123C23.3673 16.123 24.8034 17.5591 24.8034 19.3214Z" fill="#7E8295"/>
</svg>
