<svg width="50" height="50" viewBox="0 0 50 50" fill="none" xmlns="http://www.w3.org/2000/svg">
<path d="M42.8294 29.8934C41.9574 30.4264 40.9399 30.5233 40.1647 30.0872C39.1957 29.5058 38.6143 28.1977 38.6143 26.405V20.9302C38.6143 18.314 37.5969 16.4244 35.8527 15.9399C32.8973 15.0678 30.6686 18.7015 29.845 20.0581L24.6124 28.4399V18.1201C24.5639 15.7461 23.7888 14.3411 22.3353 13.905C21.3663 13.6143 19.9128 13.7597 18.5077 15.8915L6.83139 34.593C5.28101 31.6376 4.45736 28.343 4.45736 25C4.45736 13.7112 13.5174 4.55426 24.6124 4.55426C35.7074 4.55426 44.7674 13.7112 44.7674 25V25.0485V25.0969C44.8643 27.2771 44.186 29.0213 42.8294 29.8934ZM49.2248 25V24.9515V24.9031C49.1764 11.1919 38.1298 0 24.6124 0C11.0465 0 0 11.1919 0 25C0 38.7597 11.0465 50 24.6124 50C30.8624 50 36.7733 47.626 41.3275 43.3139C42.2481 42.4419 42.2965 41.0368 41.4244 40.1163C40.6008 39.1957 39.1957 39.1473 38.2752 39.9709C38.2752 39.9709 38.2752 39.9709 38.2267 40.0194C34.5446 43.5077 29.6027 45.4942 24.5155 45.4942C18.5562 45.4942 13.2267 42.8779 9.54457 38.7112L20.0581 21.8508V29.6512C20.0581 33.3818 21.5116 34.593 22.7229 34.9322C23.9341 35.2713 25.7752 35.0291 27.7616 31.8798L33.5271 22.5291C33.7209 22.2384 33.8663 21.9477 34.0601 21.7539V26.5019C34.0601 29.9903 35.4651 32.8004 37.8876 34.157C40.0678 35.4167 42.8295 35.2713 45.1066 33.8663C47.9167 32.0252 49.4186 28.8275 49.2248 25Z" fill="white"/>
</svg>
