<svg width="66" height="57" viewBox="0 0 66 57" fill="none" xmlns="http://www.w3.org/2000/svg">
<g filter="url(#filter0_dd_123_1569)">
<rect x="7" y="2" width="51.5229" height="42.3529" rx="7.94118" fill="white"/>
</g>
<path d="M27.9324 13.9121C27.0431 13.9121 26.3223 14.5047 26.3223 15.2356C26.3223 15.9666 27.0431 16.5592 27.9324 16.5592H37.5929C38.4822 16.5592 39.203 15.9666 39.203 15.2356C39.203 14.5047 38.4822 13.9121 37.5929 13.9121H27.9324Z" fill="white"/>
<path d="M23.1025 19.2063C23.1025 18.4754 23.8234 17.8828 24.7126 17.8828H40.8135C41.7028 17.8828 42.4236 18.4754 42.4236 19.2063C42.4236 19.9373 41.7028 20.5299 40.8135 20.5299H24.7126C23.8234 20.5299 23.1025 19.9373 23.1025 19.2063Z" fill="white"/>
<path d="M19.8818 24.5006C19.8818 23.0386 21.3236 21.8535 23.102 21.8535H42.4231C44.2016 21.8535 45.6433 23.0386 45.6433 24.5006V29.7947C45.6433 31.2567 44.2016 32.4418 42.4231 32.4418H23.102C21.3236 32.4418 19.8818 31.2567 19.8818 29.7947V24.5006Z" fill="white"/>
<path fill-rule="evenodd" clip-rule="evenodd" d="M40.8012 11C41.1939 11 41.5655 11.1435 41.8167 11.3913L48.4282 17.913C48.8183 18.2967 48.8381 18.8478 48.4798 19.2511L33.9345 35.5554C33.6846 35.8348 33.2879 36 32.8674 36C32.4469 36 32.0502 35.8348 31.8003 35.5554L17.255 19.2511C16.8967 18.8489 16.9179 18.2967 17.3066 17.913L23.9181 11.3913C24.1693 11.1435 24.5409 11 24.9336 11H40.8012ZM23.6116 19.6968H42.1237V17.5228H23.6116V19.6968Z" fill="#67748E"/>
<defs>
<filter id="filter0_dd_123_1569" x="0.382353" y="0.676471" width="64.7578" height="55.5878" filterUnits="userSpaceOnUse" color-interpolation-filters="sRGB">
<feFlood flood-opacity="0" result="BackgroundImageFix"/>
<feColorMatrix in="SourceAlpha" type="matrix" values="0 0 0 0 0 0 0 0 0 0 0 0 0 0 0 0 0 0 127 0" result="hardAlpha"/>
<feMorphology radius="1.32353" operator="erode" in="SourceAlpha" result="effect1_dropShadow_123_1569"/>
<feOffset dy="2.64706"/>
<feGaussianBlur stdDeviation="2.64706"/>
<feColorMatrix type="matrix" values="0 0 0 0 0 0 0 0 0 0 0 0 0 0 0 0 0 0 0.07 0"/>
<feBlend mode="normal" in2="BackgroundImageFix" result="effect1_dropShadow_123_1569"/>
<feColorMatrix in="SourceAlpha" type="matrix" values="0 0 0 0 0 0 0 0 0 0 0 0 0 0 0 0 0 0 127 0" result="hardAlpha"/>
<feMorphology radius="1.32353" operator="erode" in="SourceAlpha" result="effect2_dropShadow_123_1569"/>
<feOffset dy="5.29412"/>
<feGaussianBlur stdDeviation="3.97059"/>
<feColorMatrix type="matrix" values="0 0 0 0 0 0 0 0 0 0 0 0 0 0 0 0 0 0 0.12 0"/>
<feBlend mode="normal" in2="effect1_dropShadow_123_1569" result="effect2_dropShadow_123_1569"/>
<feBlend mode="normal" in="SourceGraphic" in2="effect2_dropShadow_123_1569" result="shape"/>
</filter>
</defs>
</svg>
