<svg width="56" height="53" viewBox="0 0 56 53" fill="none" xmlns="http://www.w3.org/2000/svg">
<rect y="0.652344" width="55.8919" height="51.5448" rx="6" fill="url(#paint0_linear_123_1710)"/>
<g clip-path="url(#clip0_123_1710)">
<path d="M28.2959 39.7945L24.873 34.6602H26.5845V31.2373H30.0074V34.6602H31.7188L28.2959 39.7945Z" fill="white"/>
<path d="M40.2752 14.1226V27.8142H16.315V14.1226H40.2752ZM41.9867 12.4111H14.6035V29.5256H41.9867V12.4111Z" fill="white"/>
<path d="M28.2949 15.834C29.6566 15.834 30.9626 16.3749 31.9255 17.3378C32.8883 18.3007 33.4293 19.6066 33.4293 20.9683C33.4293 22.33 32.8883 23.636 31.9255 24.5989C30.9626 25.5617 29.6566 26.1027 28.2949 26.1027H36.8522V24.3912H38.5636V17.5454H36.8522V15.834H28.2949Z" fill="white"/>
<path d="M23.1627 20.9683C23.1627 19.6066 23.7036 18.3007 24.6665 17.3378C25.6294 16.3749 26.9353 15.834 28.297 15.834H19.7398V17.5454H18.0283V24.3912H19.7398V26.1027H28.297C26.9353 26.1027 25.6294 25.5617 24.6665 24.5989C23.7036 23.636 23.1627 22.33 23.1627 20.9683Z" fill="white"/>
</g>
<defs>
<linearGradient id="paint0_linear_123_1710" x1="-27.946" y1="26.4247" x2="23.4303" y2="82.134" gradientUnits="userSpaceOnUse">
<stop stop-color="#A8B8D8"/>
<stop offset="1" stop-color="#627594"/>
</linearGradient>
<clipPath id="clip0_123_1710">
<rect width="27.3832" height="27.3832" fill="white" transform="translate(14.6035 12.4111)"/>
</clipPath>
</defs>
</svg>
