<svg width="65" height="60" viewBox="0 0 65 60" fill="none" xmlns="http://www.w3.org/2000/svg">
<g filter="url(#filter0_dd_123_1701)">
<rect x="5" y="1" width="55.8919" height="51.5448" rx="6" fill="url(#paint0_linear_123_1701)"/>
</g>
<path d="M29.8747 16.1816C28.3617 16.1816 26.9107 16.7827 25.8408 17.8525C24.771 18.9224 24.1699 20.3735 24.1699 21.8865C24.1699 23.3995 24.771 24.8505 25.8408 25.9204C26.9107 26.9903 28.3617 27.5913 29.8747 27.5913C31.3878 27.5913 32.8388 26.9903 33.9087 25.9204C34.9785 24.8505 35.5796 23.3995 35.5796 21.8865C35.5796 20.3735 34.9785 18.9224 33.9087 17.8525C32.8388 16.7827 31.3878 16.1816 29.8747 16.1816ZM26.4519 21.8865C26.4519 20.9787 26.8125 20.108 27.4544 19.4661C28.0963 18.8242 28.9669 18.4636 29.8747 18.4636C30.7826 18.4636 31.6532 18.8242 32.2951 19.4661C32.937 20.108 33.2976 20.9787 33.2976 21.8865C33.2976 22.7943 32.937 23.6649 32.2951 24.3068C31.6532 24.9487 30.7826 25.3094 29.8747 25.3094C28.9669 25.3094 28.0963 24.9487 27.4544 24.3068C26.8125 23.6649 26.4519 22.7943 26.4519 21.8865Z" fill="white"/>
<path d="M38.8962 22.1352C38.5753 21.9717 38.2203 21.8864 37.8602 21.8864V19.6045C38.5807 19.6045 39.291 19.7752 39.9329 20.1025C40.5748 20.4298 41.1301 20.9044 41.5534 21.4876C41.9766 22.0707 42.2558 22.7458 42.368 23.4575C42.4802 24.1693 42.4223 24.8975 42.1991 25.5826C41.9758 26.2676 41.5935 26.8901 41.0834 27.3991C40.5733 27.908 39.95 28.2889 39.2645 28.5107C38.5789 28.7324 37.8505 28.7887 37.139 28.6749C36.4275 28.5611 35.7531 28.2805 35.1709 27.856L36.515 26.0122C36.7694 26.1973 37.0594 26.3279 37.3668 26.3956C37.6741 26.4633 37.9922 26.4667 38.3009 26.4056C38.6096 26.3445 38.9024 26.2202 39.1607 26.0405C39.4191 25.8608 39.6375 25.6296 39.8022 25.3614C39.9669 25.0932 40.0744 24.7939 40.1178 24.4822C40.1613 24.1705 40.1398 23.8531 40.0547 23.5501C39.9696 23.2471 39.8227 22.965 39.6234 22.7215C39.424 22.478 39.1764 22.2784 38.8962 22.1352Z" fill="white"/>
<path d="M42.4229 36.7188C42.4226 35.5091 41.9419 34.349 41.0865 33.4936C40.2311 32.6383 39.071 32.1576 37.8613 32.1573V29.873C39.6769 29.8733 41.4179 30.5947 42.7017 31.8785C43.9855 33.1622 44.7068 34.9033 44.7071 36.7188H42.4229Z" fill="white"/>
<path d="M37.8612 36.7192H35.5793C35.5793 35.2062 34.9782 33.7551 33.9084 32.6853C32.8385 31.6154 31.3875 31.0144 29.8745 31.0144C28.3614 31.0144 26.9104 31.6154 25.8405 32.6853C24.7707 33.7551 24.1696 35.2062 24.1696 36.7192H21.8877C21.8877 34.601 22.7292 32.5695 24.227 31.0717C25.7248 29.5739 27.7562 28.7324 29.8745 28.7324C31.9927 28.7324 34.0241 29.5739 35.5219 31.0717C37.0197 32.5695 37.8612 34.601 37.8612 36.7192Z" fill="white"/>
<defs>
<filter id="filter0_dd_123_1701" x="0.957855" y="0.191571" width="63.9759" height="59.6292" filterUnits="userSpaceOnUse" color-interpolation-filters="sRGB">
<feFlood flood-opacity="0" result="BackgroundImageFix"/>
<feColorMatrix in="SourceAlpha" type="matrix" values="0 0 0 0 0 0 0 0 0 0 0 0 0 0 0 0 0 0 127 0" result="hardAlpha"/>
<feMorphology radius="0.808429" operator="erode" in="SourceAlpha" result="effect1_dropShadow_123_1701"/>
<feOffset dy="1.61686"/>
<feGaussianBlur stdDeviation="1.61686"/>
<feColorMatrix type="matrix" values="0 0 0 0 0 0 0 0 0 0 0 0 0 0 0 0 0 0 0.07 0"/>
<feBlend mode="normal" in2="BackgroundImageFix" result="effect1_dropShadow_123_1701"/>
<feColorMatrix in="SourceAlpha" type="matrix" values="0 0 0 0 0 0 0 0 0 0 0 0 0 0 0 0 0 0 127 0" result="hardAlpha"/>
<feMorphology radius="0.808429" operator="erode" in="SourceAlpha" result="effect2_dropShadow_123_1701"/>
<feOffset dy="3.23372"/>
<feGaussianBlur stdDeviation="2.42529"/>
<feColorMatrix type="matrix" values="0 0 0 0 0 0 0 0 0 0 0 0 0 0 0 0 0 0 0.12 0"/>
<feBlend mode="normal" in2="effect1_dropShadow_123_1701" result="effect2_dropShadow_123_1701"/>
<feBlend mode="normal" in="SourceGraphic" in2="effect2_dropShadow_123_1701" result="shape"/>
</filter>
<linearGradient id="paint0_linear_123_1701" x1="20.5076" y1="26.7724" x2="60.8919" y2="26.7724" gradientUnits="userSpaceOnUse">
<stop stop-color="#E57506"/>
<stop offset="1" stop-color="#F0B921"/>
</linearGradient>
</defs>
</svg>
